<svg xmlns="http://www.w3.org/2000/svg" xml:space="preserve" width="32" height="32" preserveAspectRatio="xMidYMid" version="1.0" viewBox="0 0 24 24"><defs><clipPath id="e"><path stroke-width=".742" d="M22.459 5.557h184.77v178.75H22.459z" opacity=".45"/></clipPath><clipPath id="d"><path stroke-width=".742" d="M22.459 5.557h184.77v178.75H22.459z" opacity=".45"/></clipPath><clipPath id="c"><path stroke-width=".742" d="M22.459 5.557h184.77v178.75H22.459z" opacity=".45"/></clipPath><clipPath id="b"><path stroke-width=".742" d="M22.459 5.557h184.77v178.75H22.459z" opacity=".45"/></clipPath><clipPath id="a"><path stroke-width="7.419" d="M224.59 2264.4h1847.7V476.9H224.59z" opacity=".45"/></clipPath></defs><g clip-path="url(#a)" transform="matrix(.01318 0 0 -.01351 -3.307 30.179)"><path d="M1153 2206c-84-27-141-76-186-161-32-59-31-192 1-256 73-148 248-214 392-148 78 36 114 71 149 141 77 154 10 341-148 411-57 25-153 31-208 13zm186-156c38-26 70-90 71-136 0-51-40-115-90-141-159-84-316 98-211 245 31 44 77 63 142 59 38-2 66-10 88-27zM586 2030c-57-29-85-58-112-115-77-162 37-339 216-339 203 0 310 226 185 390-59 77-200 108-289 64zm164-100c35-18 62-60 67-103 16-136-150-200-236-91-28 36-28 105 0 150 11 19 21 34 22 34s20 7 42 14c38 14 72 12 105-4zM323 1520c-51-31-55-59-51-412l3-317 29-30 30-31h1166l32 29 33 29 3 319c4 354 0 382-51 413-31 19-55 20-597 20s-566-1-597-20zM135 1390c-16-11-46-28-65-37-57-29-51-52 24-96 38-22 75-37 88-35 21 3 23 9 26 73 5 117-9 135-73 95zM1938 1326c-163-88-272-152-282-168-7-11-7-26-1-44 8-20 46-46 170-115 156-87 199-101 223-77 9 9 12 69 12 209 0 193-1 198-22 213-29 21-26 21-100-18zM525 614c-9-9-15-24-13-33 3-14 43-16 399-19 336-2 398 0 408 12 9 11 10 20 1 35-11 21-17 21-395 21-340 0-385-2-400-16zM572 473c2-5 10-20 17-36l14-27 309 2 309 3 20 33 21 32H915c-191 0-345-3-343-7zM650 325c0-4 7-19 15-35l16-30h447l21 35 20 35H910c-143 0-260-2-260-5zM730 175c0-2 8-20 17-40l17-36 134 3 135 3 24 37 23 38H905c-96 0-175-2-175-5z"/></g><g stroke-width=".75"><path d="M30.136 23.921c-.607.913-1.213 1.831-1.901 2.686a19.12 19.12 0 0 0-1.098 1.292c-.002.002 0 .003.002.002.35-.445.709-.88 1.098-1.293.689-.854 1.294-1.772 1.902-2.686 0-.001-.002-.003-.003-.001z" clip-path="url(#b)" transform="matrix(1.027 0 0 1.0437 -23.414 -10.581)"/><path fill="#fff" d="M52.84 187.64c5.006.829 10.098.984 15.158 1.198a626.6 626.6 0 0 0 16.408.357c1.72.099 3.462-.11 5.177.058 1.28.13 2.566.197 3.85.279.643.041.42-.017.73.077-.073-.018-.146-.071-.22-.056-.052.011.091.059.143.073.297.082.594.173.9.215.438.06.883.069 1.326.089 1.265.057 3.197.084 4.415.107 1.38.046 2.761.019 4.14.056.202.005.63.24.604.04-.126-.964-.176-2.177-.958-2.754-.704-.52-1.75.072-2.624.106-1.482.058-2.964.114-4.446.17-11.04.542-22.082.997-33.124 1.45l-2.055.05c-.009-.012-.034-.049-.026-.036.525.882.645 2.217 1.579 2.644 1.092.5 2.395-.198 3.594-.276 4.578-.298 6.887-.372 11.61-.579 9.153-.382 18.312-.52 27.468-.752-.659-.973-.928-2.388-1.976-2.92-1.13-.572-2.534-.015-3.801-.008-1.692.009-3.384.028-5.076.058-5.868.107-11.733.324-17.597.556-3.733.184-7.47.297-11.2.535-.45.03-1.103-.268-1.346.11-2.198 3.428.155 2.793 2.21 3.027 9.248.188 18.497.195 27.746.225.578.002 1.496.533 1.735.006.391-.862.201-2.13-.466-2.801-.53-.533-1.503.04-2.254.062-5.326.162-10.651.332-15.976.488-4.497.047-9 .33-13.497.13a23.33 23.33 0 0 1-2.307-.195c-.35-.05-1.056-.64-1.021-.287.052.542.74.799 1.11 1.198.2.226.297.652.597.677.966.082 1.92-.28 2.884-.383 1.399-.15 2.802-.267 4.205-.378 4.695-.37 9.4-.6 14.103-.853-3.106-1.605 3.947.553 3.493-.534-.46-1.104-1.13-2.301-2.2-2.835-1.056-.527-2.36-.032-3.54-.028-3.522.014-5.37.084-8.897.179-2.952.111-5.908.18-8.856.375-.226.015-.691-.163-.677.063.23 3.55.49 2.855 3.049 2.864 4.077.011 8.154-.04 12.23-.087 2.67-.03 5.338-.092 8.007.006-.367-.918-.25-2.252-1.102-2.753-.958-.565-2.223.096-3.334.14-1.85.074-3.7.15-5.551.214-6.861.24-13.725.416-20.588.592-3.113.075-6.168.163-9.276.196-.789.008-1.578.02-2.366 0-.09-.002-.3-.15-.262-.067 1.718 3.78.834 2.69 5.205 2.475 15.403-.445 30.813-.786 46.223-.804 2.956.043 3.828.035 6.537.136.962.036 2.027.029 2.985.224 1.974.357 2.479-2.435.505-2.792-1.127-.19-2.264-.226-3.405-.268-2.746-.102-3.632-.094-6.626-.137-15.456.018-30.912.36-46.36.807-3.762.188-4.361-.885-5.552 3.154-.071.243.498.101.75.11.804.027 1.609.008 2.413-.001 3.116-.033 6.18-.12 9.301-.197 6.876-.176 13.751-.351 20.624-.592 1.855-.065 3.708-.14 5.562-.215 1.143-.045 2.488.505 3.428-.146.843-.583.66-1.94.99-2.911-2.714-.097-5.425-.039-8.14-.007-4.063.046-8.126.098-12.19.087-2.544-.008-2.638-.687-2.793 2.798-.009.192.382-.042.574-.055.628-.042 1.256-.078 1.885-.108 2.464-.119 4.37-.176 6.886-.264 3.632-.098 5.178-.16 8.801-.177 1.117-.005 2.376.564 3.352.02.834-.466.808-1.731 1.241-2.582.013-.024.026.047.039.07l-2.519.217c-4.736.256-9.475.486-14.204.86-.445.036-6.68.536-7.605.857-.965.336-1.75 1.058-2.625 1.587.325.672.437 1.497.975 2.015.37.357.99.295 1.5.368.825.119 1.66.168 2.492.205 4.542.2 9.09-.081 13.63-.131 5.326-.156 10.65-.322 15.975-.488.808-.025 1.883.528 2.425-.072.641-.71.67-2.016.223-2.863-.27-.511-1.157-.004-1.735-.006-9.209-.03-18.418-.037-27.625-.222-1.447.138-2.646-.15-2.107 2.636.08.417.845-.078 1.268-.105 3.716-.237 7.438-.35 11.156-.533 5.838-.23 11.676-.448 17.518-.554 1.679-.03 3.358-.048 5.037-.058 1.23-.007 2.58.54 3.689.007 1.026-.493 1.348-1.835 2.023-2.752-9.174.232-18.351.37-27.52.754-4.767.209-7.082.283-11.704.584-1.217.08-2.599-.342-3.647.28-1 .594-1.4 1.89-1.829 2.97-.334.843 5.978-2.16 2.718.033 11.04-.454 22.08-.909 33.116-1.45 1.484-.057 2.97-.112 4.454-.17.912-.036 2.033.468 2.736-.114.781-.647.853-1.892.91-2.905.014-.25-.497-.039-.746-.046-1.375-.038-2.75-.009-4.125-.056-1.582-.03-2.745-.042-4.294-.102-.346-.013-.69-.054-1.036-.056-.033 0-.052.056-.085.051-.23-.033-.358-.394-.646-.266-1.61-.281-3.271-.171-4.89-.4-1.794-.143-3.599-.005-5.396-.069-5.44-.052-10.88-.16-16.316-.355-4.857-.204-9.736-.366-14.547-1.105-1.939-.517-2.67 2.225-.731 2.742z" clip-path="url(#c)" transform="translate(-15.745 -8.044)"/><path fill="#fff" d="M60.63 208.78c5.508.335 11.032.337 16.548.384 3.33.038 6.66.022 9.989.047 1.843.013 3.018.01 4.82.148.702.053 1.399.142 2.098.213 4.848.54 9.688 1.129 14.55 1.525 4.502.292 9.011.455 13.511.783 4.218.276 8.429.663 12.633 1.105 1.279.105 2.546.305 3.813.496 9.914 1.485 12.014-12.534 2.101-14.02-1.475-.22-2.95-.445-4.436-.576-4.355-.455-8.716-.858-13.085-1.145-4.46-.322-8.929-.498-13.392-.773-4.784-.385-9.545-.983-14.314-1.504-.922-.088-1.843-.197-2.767-.263-5.122-.367-10.269-.063-15.398-.212-5.13-.044-10.264-.052-15.387-.326-9.983-.908-11.266 13.21-1.283 14.118z" clip-path="url(#d)" transform="translate(-15.745 -8.044)"/></g><g stroke-width=".75"><circle cx="70.619" cy="176.2" r=".109" stroke="#000" clip-path="url(#e)" transform="translate(-22.459 -10.359)"/><path d="m4.428 4.515.651-.478-.897-.246zM.26 9.406h17.163v10.969H.26zM3.039 21.475h11.23v1.389H3.039z"/></g><g stroke-width=".75"><path fill="#fff" d="M3.907 23.385h9.956v.492H3.907zM18.32 10.998h5.673v7.438H18.32z"/><path d="m17.799 14.818 6.02-2.981v6.31z"/></g></svg>